<svg fill="none" height="109" viewBox="0 0 227 109" width="227" xmlns="http://www.w3.org/2000/svg"><path d="m127.886 1.07169c-8.317 3.9439-13.281 14.54581-19.306 41.17771-.934 4.1984-1.867 8.0574-2.08 8.5239-.636 1.4419-6.831 2.29-11.159 1.6115l-1.6124-.2968v-2.7989c0-4.7073-2.3337-7.6758-6.0252-7.6758-4.8372 0-7.5103 3.8591-6.3223 9.0328.5092 2.0356.4668 2.4172-.594 5.3858-2.3761 6.4883-5.4312 11.4924-8.1892 13.3583-3.3521 2.2901-6.9163.721-7.5103-3.2653-.5941-3.9015 1.6548-11.7893 5.0493-17.896 1.8669-3.3078 5.3039-6.9973 7.7224-8.2271 3.3521-1.6963 7.9347-1.9507 11.3292-.5513 1.9094.7634 2.1215.6361 1.8669-1.1026-.9759-5.9794-12.1353-8.2695-20.4518-4.1559-7.2133 3.5198-12.8991 10.8139-14.9358 19.0834-.4243 1.6115-.7637 3.0109-.8062 3.0957-.0424.0848-1.9094-.2968-4.1158-.8481l-4.031-.9754-.297-2.9261c-.6789-6.7852-2.8429-10.8563-10.9897-20.186-7.383-8.5239-9.0378-12.4678-7.383-17.9808.7638-2.4596 3.8612-5.5554 6.2798-6.19151 4.9645-1.35704 10.4381.16963 12.0929 3.43501.6365 1.1874.6365 1.2298-1.2729 3.0533-1.7397 1.6963-1.9094 2.0356-1.9094 3.8591 0 1.1026.297 2.5445.6364 3.1806 1.3578 2.6293 5.8556 3.3078 8.656 1.3146 3.2672-2.29 4.1583-8.015 1.9943-12.42538-2.2489-4.62242-6.7466-7.54854-12.9415-8.4391-17.5666-2.45964-29.914 14.54578-21.9794 30.36378 1.5699 3.223 3.6915 6.0643 8.2316 11.1532 4.1583 4.7072 5.5161 6.658 5.898 8.3967l.2546 1.2722h-8.8681c-7.1285 0-9.4622.1697-12.2202.8058-4.58261 1.0602-7.4255 2.3748-9.71678 4.4952-2.461013 2.2476-3.3945 4.6648-3.1399124 8.015.5516054 7.5485 9.7167424 12.0861 21.6823924 10.7715 10.7775-1.2298 18.7546-6.0219 22.4885-13.528l1.2729-2.5869 1.7397.3817c.9759.212 3.0126.7633 4.5402 1.1874l2.8004.8482.2546 1.9083c.3819 2.5869 2.0367 5.725 3.9461 7.4213 4.0734 3.5623 10.82 4.7921 16.633 3.011 5.9828-1.7811 11.7959-7.3365 15.1904-14.3762l1.4427-3.0533 3.5218.2544c2.1215.1696 4.7098.0848 6.4068-.212 1.613-.2969 2.97-.4665 3.013-.3817.339.2969-1.443 6.8276-1.952 7.2941-.339.2969-2.122 1.7811-4.0309 3.3502-16.3785 13.4008-24.0161 32.1878-15.9117 39.0148 1.9094 1.569 3.9885 2.121 7.4254 1.908 10.5652-.72 16.9722-10.9407 22.9982-36.9365l2.036-8.7359 2.758-1.2723c3.225-1.4418 9.25-3.2654 12.263-3.6894l2.079-.2545-.339 2.4597c-.382 2.8413-.085 6.4035.763 8.8207 1.443 4.156 5.05 6.6156 9.717 6.6156 4.625 0 9.038-3.0109 12.942-8.8208 1.188-1.7811 2.206-3.3077 2.248-3.3502.043-.0424.085 1.4843.043 3.3927 0 4.1559.806 6.1915 3.14 7.5909 1.273.8057 2.121.9754 5.134.9754 3.097 0 3.946-.1697 5.983-1.1874 4.328-2.1204 10.947-10.1354 17.142-20.7373.891-1.5691 1.697-2.7989 1.782-2.7141.085.0424-1.527 5.3009-3.522 11.7045-2.927 9.2448-3.521 11.6196-3.097 11.9165 1.188.7209 5.219 1.3146 7.34 1.0602 3.607-.4665 3.904-.8058 6.323-6.6156 2.546-6.0643 5.134-10.9411 8.698-16.3693 2.673-4.0711 6.959-8.948 8.698-9.881.934-.5089 1.146-.424 2.08.5089 4.285 4.2832 11.456-1.8235 8.656-7.2941-1.613-3.0533-5.941-3.7318-9.972-1.5266-3.479 1.9083-9.717 9.9657-14.299 18.4048-.891 1.6539-1.655 2.9262-1.74 2.8413-.085-.0848 1.4-4.58 3.267-10.0506 1.91-5.4705 3.565-10.2626 3.692-10.6867.552-1.6963-6.45-2.6716-10.056-1.3994-1.57.5513-1.613.6361-8.062 12.6374-5.856 10.9836-14.342 21.8399-18.118 23.2818-1.698.6361-3.055.1272-3.352-1.1874-.722-2.7565 2.079-12.2982 7.468-25.7838 1.612-3.9863 2.97-7.5061 3.055-7.803.212-1.0602-2.886-1.8235-6.45-1.6539-5.474.2969-5.134-.1272-10.014 12.0862-4.964 12.4254-6.661 16.03-9.292 19.5922-2.164 2.9686-4.031 4.2832-6.025 4.2832-3.819 0-4.371-4.6224-1.57-13.0615 3.521-10.6443 10.395-18.108 15.911-17.3447 1.952.2544 2.334-.3817 1.485-2.4596-1.018-2.3325-2.418-2.9686-6.831-2.9686-3.522 0-4.031.1273-6.747 1.4843-5.049 2.502-10.225 8.3967-13.238 15.0123l-1.231 2.6716-3.946.4665c-2.164.2969-5.982 1.1874-8.443 1.9932-2.504.8057-4.583 1.3994-4.625 1.357-.043-.0424.212-1.3146.551-2.8413.594-2.4596.891-2.9261 2.546-4.1983 7.298-5.6402 15.53-16.4118 19.221-25.3597 2.843-6.7428 3.904-14.3762 2.589-18.06566-.679-1.95075-2.674-4.32557-4.328-5.216128-1.995-1.017781-7.383-.805744-9.929.424078zm7.68 5.97946c1.315.89056 1.527 2.71408.764 6.70035-1.019 5.4706-4.795 13.6977-9.505 20.6525-1.867 2.7141-5.983 7.7606-6.195 7.5062-.212-.2121 3.904-17.472 5.389-22.7729 2.885-9.96577 6.322-14.37616 9.547-12.08615zm-106.842 51.39795c5.9404.2968 5.8979.2544 4.0734 3.8591-1.3154 2.6293-3.8612 4.7496-7.2982 6.0643-2.9702 1.145-10.3532 1.6114-13.1961.8057-2.58828-.6785-4.70984-2.8413-4.70984-4.7496 0-2.7565 2.33372-4.5376 7.00114-5.3858 4.625-.8481 7.4679-.9754 14.1296-.5937zm71.369 20.9917c-3.9882 16.539-6.8736 22.8152-10.6075 22.9002-2.7156.085-3.6491-2.799-2.5034-7.6335.7213-2.9685 3.8612-9.2448 6.2798-12.4254 2.5034-3.3078 7.7221-8.9904 7.9771-8.6935.085.0848-.424 2.7141-1.146 5.8522z" fill="#fff"/></svg>